<svg xmlns="http://www.w3.org/2000/svg" xmlns:xlink="http://www.w3.org/1999/xlink" width="344pt" height="158pt" viewBox="0.00 0.00 344.00 158.00">
<g id="graph0" class="graph" transform="scale(1 1) rotate(0) translate(4 153.79)">
<title>PDA</title>
<polygon fill="white" stroke="none" points="-4,4 -4,-153.79 339.76,-153.79 339.76,4 -4,4"/>
<!-- inicio -->
<g id="node1" class="node">
<title>inicio</title>
<ellipse fill="black" stroke="black" cx="1.8" cy="-24.69" rx="1.8" ry="1.8"/>
</g>
<!-- q0 -->
<g id="node2" class="node">
<title>q0</title>
<ellipse fill="none" stroke="black" cx="61.29" cy="-24.69" rx="20.69" ry="20.69"/>
<text xml:space="preserve" text-anchor="middle" x="61.29" y="-20.49" font-family="Times,serif" font-size="14.00">q0</text>
</g>
<!-- inicio&#45;&gt;q0 -->
<g id="edge1" class="edge">
<title>inicio-&gt;q0</title>
<path fill="none" stroke="black" d="M3.8,-24.69C7.06,-24.69 17.87,-24.69 29.17,-24.69"/>
<polygon fill="black" stroke="black" points="28.86,-28.19 38.86,-24.69 28.86,-21.19 28.86,-28.19"/>
</g>
<!-- q1 -->
<g id="node4" class="node">
<title>q1</title>
<ellipse fill="none" stroke="black" cx="184.18" cy="-24.69" rx="20.69" ry="20.69"/>
<text xml:space="preserve" text-anchor="middle" x="184.18" y="-20.49" font-family="Times,serif" font-size="14.00">q1</text>
</g>
<!-- q0&#45;&gt;q1 -->
<g id="edge2" class="edge">
<title>q0-&gt;q1</title>
<path fill="none" stroke="black" d="M82.26,-24.69C101.15,-24.69 129.82,-24.69 151.78,-24.69"/>
<polygon fill="black" stroke="black" points="151.68,-28.19 161.68,-24.69 151.68,-21.19 151.68,-28.19"/>
<text xml:space="preserve" text-anchor="middle" x="122.74" y="-28.89" font-family="Times,serif" font-size="14.00">ε, ε → $</text>
</g>
<!-- q2 -->
<g id="node3" class="node">
<title>q2</title>
<ellipse fill="none" stroke="black" cx="311.07" cy="-24.69" rx="20.69" ry="20.69"/>
<ellipse fill="none" stroke="black" cx="311.07" cy="-24.69" rx="24.69" ry="24.69"/>
<text xml:space="preserve" text-anchor="middle" x="311.07" y="-20.49" font-family="Times,serif" font-size="14.00">q2</text>
</g>
<!-- q1&#45;&gt;q2 -->
<g id="edge6" class="edge">
<title>q1-&gt;q2</title>
<path fill="none" stroke="black" d="M205.25,-24.69C223.95,-24.69 252.25,-24.69 274.74,-24.69"/>
<polygon fill="black" stroke="black" points="274.7,-28.19 284.7,-24.69 274.7,-21.19 274.7,-28.19"/>
<text xml:space="preserve" text-anchor="middle" x="245.62" y="-28.89" font-family="Times,serif" font-size="14.00">ε, $ → $</text>
</g>
<!-- q1&#45;&gt;q1 -->
<g id="edge3" class="edge">
<title>q1-&gt;q1</title>
<path fill="none" stroke="black" d="M180.42,-45.39C180.01,-55 181.26,-63.39 184.18,-63.39 185.82,-63.39 186.94,-60.73 187.53,-56.7"/>
<polygon fill="black" stroke="black" points="191.02,-57.03 187.89,-46.91 184.02,-56.77 191.02,-57.03"/>
<text xml:space="preserve" text-anchor="middle" x="184.18" y="-67.59" font-family="Times,serif" font-size="14.00">( , X → X(</text>
</g>
<!-- q1&#45;&gt;q1 -->
<g id="edge4" class="edge">
<title>q1-&gt;q1</title>
<path fill="none" stroke="black" d="M177.82,-44.74C174.82,-62.49 176.94,-81.39 184.18,-81.39 189.89,-81.39 192.42,-69.62 191.76,-55.94"/>
<polygon fill="black" stroke="black" points="195.26,-55.81 190.71,-46.25 188.31,-56.57 195.26,-55.81"/>
<text xml:space="preserve" text-anchor="middle" x="184.18" y="-85.59" font-family="Times,serif" font-size="14.00">) , ( → ε</text>
</g>
<!-- q1&#45;&gt;q1 -->
<g id="edge5" class="edge">
<title>q1-&gt;q1</title>
<path fill="none" stroke="black" d="M176.2,-44.2C169.58,-69.3 172.24,-99.39 184.18,-99.39 194.4,-99.39 197.82,-77.37 194.45,-55.29"/>
<polygon fill="black" stroke="black" points="197.91,-54.77 192.46,-45.69 191.06,-56.19 197.91,-54.77"/>
<text xml:space="preserve" text-anchor="middle" x="184.18" y="-103.59" font-family="Times,serif" font-size="14.00">a-z A-Z 0-9 + - * /</text>
</g>
</g>
</svg>